# xmcd
#
# Track frame offsets: 
#        150
#        12127
#        39688
#        53799
#        66486
#        80845
#        95741
#        109083
#        120897
#        132408
#        144875
#        158588
#        172278
#        187214
#        201776
#        215603
#        229457
#        243605
#        258629
#        273535
#
# Disc length: 3806 seconds
#
# Revision: 2
# Processed by: cddbd v1.5.2PL0 Copyright (c) Steve Scherf et al.
# Submitted via: ExactAudioCopy v1.0b3
#
DISCID=370edc14
DTITLE=Various Artist - Jazz in the Charts - CD069 (1942) (3)
DYEAR=1942
DGENRE=Jazz
TTITLE0=Casa Loma Orchestra - One Dozen Roses
TTITLE1=Jimmy Lunceford and His Orchestra - I'm Gonna Move to the Outski
TTITLE1=rts of Town I_II
TTITLE2=Bob Crosby and His Orchestra - Barrelhouse Bessie From Basin Str
TTITLE2=eet
TTITLE3=Jimmy Dorsey and His Orchestra - I Threw a Kiss in the Ocean
TTITLE4=Jimmy Dorsey and His Orchestra - Heavenly Hideaway
TTITLE5=Benny Goodman and His Orchestra - Full Moon (Noche De Luna)
TTITLE6=Tony Pastor and His Orchestra - That Ain't the Way I Dreamed It
TTITLE7=Jimmy Dorsey and His Orchestra - Wonder When My Baby's Coming Ho
TTITLE7=me
TTITLE8=Tommy Dorsey and His Orchestra - The Last Call for Love
TTITLE9=Woody Herman and His Orchestra - Don't Tell a Lie About Me, Dear
TTITLE9=(And I Won't Tell the Truth About You)
TTITLE10=Gene Krupa and His Orchestra - Knock Me a Kiss
TTITLE11=Jimmy Dorsey and His Orchestra - If You Are But a Dream
TTITLE12=Benny Goodman and His Orchestra - The Way You Look Tonight
TTITLE13=Woody Herman and His Orchestra - Amen (Yea-Man)
TTITLE14=Jimmy Dorsey and His Orchestra - Full Moon (Noche De Luna)
TTITLE15=Tommy Dorsey and His Orchestra - Well, Git It!
TTITLE16=Glenn Miller and His Orchestra - Sweet Eloise
TTITLE17=Glenn Miller and His Orchestra - American Patrol
TTITLE18=Erskine Hawkins (The Twentieth Century Gabriel) and His Orchest
TTITLE18=ra - Wrap Your Troubles In Dreams (And Dream Your Troubles Aw
TTITLE18=ay)
TTITLE19=Glenn Miller and His Orchestra - Knit One, Purl Two
EXTD=YEAR: 1942
EXTT0=
EXTT1=
EXTT2=
EXTT3=
EXTT4=
EXTT5=
EXTT6=
EXTT7=
EXTT8=
EXTT9=
EXTT10=
EXTT11=
EXTT12=
EXTT13=
EXTT14=
EXTT15=
EXTT16=
EXTT17=
EXTT18=
EXTT19=
PLAYORDER=
